<svg data-v-0dd9719b="" version="1.0" xmlns="http://www.w3.org/2000/svg" xmlns:xlink="http://www.w3.org/1999/xlink" width="100%" height="100%" viewBox="0 0 340.000000 250.000000" preserveAspectRatio="xMidYMid meet" color-interpolation-filters="sRGB" style="margin: auto;"> <rect data-v-0dd9719b="" x="0" y="0" width="100%" height="100%" fill="#feffff" fill-opacity="1" class="background"></rect> <rect data-v-0dd9719b="" x="0" y="0" width="100%" height="100%" fill="url(#watermark)" fill-opacity="1" class="watermarklayer"></rect> <g data-v-0dd9719b="" fill="#00539f" class="icon-text-wrapper icon-svg-group iconsvg" transform="translate(53.63999938964844,95.05420112609863)"><g class="iconsvg-imagesvg" transform="translate(0,0)"><g><rect fill="#00539f" fill-opacity="0" stroke-width="2" x="0" y="0" width="60" height="59.89159621085834" class="image-rect"></rect> <svg filter="url(#colors2791750498)" x="0" y="0" width="60" height="59.89159621085834" filtersec="colorsf1388467155" class="image-svg-svg primary" style="overflow: visible;"><svg xmlns="http://www.w3.org/2000/svg" viewBox="-0.6000000000000001 -0.6000000000000001 59.5 59.4"><path d="M36.4 21.9c4 4 4 10.5 0 14.5s-10.5 4-14.5 0-4-10.5 0-14.5m14.5 0L22.5 8 1.4 29.1l27.7 27.7 27.7-27.7L29.1 1.4m7.3 34.9c4-4 4-10.5 0-14.5s-10.5-4-14.5 0-4 10.5 0 14.5m0 0l13.9 13.9 21.1-21.1L29.2 1.4 1.5 29.1l27.7 27.7" fill="none" stroke="#282828" stroke-width="2" stroke-miterlimit="10"></path></svg></svg> <defs><filter id="colors2791750498"><feColorMatrix type="matrix" values="0 0 0 0 0  0 0 0 0 0.32421875  0 0 0 0 0.62109375  0 0 0 1 0" class="icon-fecolormatrix"></feColorMatrix></filter> <filter id="colorsf1388467155"><feColorMatrix type="matrix" values="0 0 0 0 0.99609375  0 0 0 0 0.99609375  0 0 0 0 0.99609375  0 0 0 1 0" class="icon-fecolormatrix"></feColorMatrix></filter> <filter id="colorsb4812338500"><feColorMatrix type="matrix" values="0 0 0 0 0  0 0 0 0 0  0 0 0 0 0  0 0 0 1 0" class="icon-fecolormatrix"></feColorMatrix></filter></defs></g></g> <g transform="translate(67,2.3045482635498047)"><g data-gra="path-name" fill-rule="" class="tp-name iconsvg-namesvg" transform="translate(0,0)"><g transform="scale(1)"><g><path d="M14.66-27.43L25.5-27.43 25.71-34.87 27.22-34.87 27-27.43 38.53-27.43 38.53-18.79 37.11-18.79 37.11-25.97 26.96-25.97 26.96-25.84Q26.75-20.73 25.91-16.43 25.07-12.13 23.24-8.36 21.41-4.6 18.38-1.25 15.35 2.11 10.84 5.33L10.84 5.33 9.72 4.08Q14.19 1.08 17.11-2.09 20.04-5.25 21.82-8.82 23.61-12.38 24.42-16.55 25.24-20.73 25.46-25.84L25.46-25.84 25.46-25.97 16.08-25.97 16.08-18.83 14.66-18.83 14.66-27.43ZM26.92-19.95L28.38-19.95 28.38-1.55Q28.38-0.52 28.42 0.11 28.47 0.73 28.72 1.1 28.98 1.46 29.5 1.61 30.01 1.76 30.92 1.81L30.92 1.81Q32.04 1.89 32.98 1.89 33.93 1.89 34.96 1.81L34.96 1.81Q35.99 1.76 36.55 1.63 37.11 1.51 37.43 1.2 37.75 0.9 37.88 0.32 38.01-0.26 38.14-1.25L38.14-1.25Q38.53-3.74 38.66-6.24L38.66-6.24 40.08-5.63Q39.9-3.23 39.56-0.95L39.56-0.95Q39.39 0.39 39.17 1.18 38.96 1.98 38.49 2.45 38.01 2.92 37.2 3.12 36.38 3.31 35.05 3.4L35.05 3.4Q34.06 3.48 32.87 3.48 31.69 3.48 30.62 3.4L30.62 3.4Q29.37 3.31 28.64 3.07 27.91 2.84 27.52 2.32 27.13 1.81 27.03 0.95 26.92 0.09 26.92-1.2L26.92-1.2 26.92-19.95ZM4.86 3.78L3.48 3.14Q4.21 1.89 5.03 0.09 5.85-1.72 6.79-4.13L6.79-4.13Q8.69-8.9 9.55-11.95L9.55-11.95 10.15-11.65 10.92-11.31Q10.49-9.8 9.83-7.87 9.16-5.93 8.17-3.53L8.17-3.53Q7.22-1.16 6.41 0.65 5.59 2.45 4.86 3.78L4.86 3.78ZM1.94-23.05L2.8-24.25Q3.61-23.78 4.67-23.03 5.72-22.27 6.97-21.29L6.97-21.29Q9.46-19.35 10.88-17.93L10.88-17.93 10.02-16.64Q9.33-17.33 8.34-18.19 7.35-19.05 6.06-20.04L6.06-20.04Q4.82-21.03 3.78-21.8 2.75-22.58 1.94-23.05L1.94-23.05ZM4.17-32.34L4.99-33.5Q5.72-33.02 6.67-32.34 7.61-31.65 8.77-30.7L8.77-30.7Q9.98-29.76 10.88-28.96 11.78-28.17 12.38-27.56L12.38-27.56 11.52-26.36Q10.92-26.96 10.02-27.76 9.12-28.55 7.91-29.5L7.91-29.5Q5.59-31.35 4.17-32.34L4.17-32.34ZM62.65-31.39L81.18-31.39 81.18 2.58 62.65 2.58 62.65-31.39ZM64.2 0.95L79.68 0.95 79.68-14.36 64.2-14.36 64.2 0.95ZM64.2-29.84L64.2-15.95 79.68-15.95 79.68-29.84 64.2-29.84ZM48.03-32.25L59.3-32.25 59.3-30.75Q58.52-27.95 57.53-25.18 56.55-22.4 55.43-20L55.43-20Q57.49-17.24 58.54-14.6 59.6-11.95 59.64-9.33L59.64-9.33Q59.64-7.74 59.38-6.69 59.13-5.63 58.52-4.99 57.92-4.34 56.93-4 55.94-3.66 54.52-3.53L54.52-3.53Q54.27-3.53 53.81-3.5 53.36-3.48 52.91-3.48 52.46-3.48 52.07-3.48 51.69-3.48 51.51-3.48L51.51-3.48 51.21-5.29Q51.39-5.29 51.81-5.27 52.25-5.25 52.7-5.22 53.15-5.2 53.56-5.18 53.97-5.16 54.18-5.16L54.18-5.16Q55.3-5.2 56.07-5.38 56.85-5.55 57.32-6.02 57.79-6.49 58.01-7.31 58.22-8.13 58.22-9.42L58.22-9.42Q58.22-11.61 57.21-14.17 56.2-16.73 53.92-19.74L53.92-19.74Q55.04-22.45 56.03-25.11 57.02-27.78 57.84-30.75L57.84-30.75 49.54-30.75 49.54 5.03 48.03 5.03 48.03-32.25ZM101.78-18.79L111.97-18.79 111.97 0.9Q111.97 2.45 111.43 3.1 110.9 3.74 109.56 3.91L109.56 3.91Q108.79 4 108.08 4.02 107.37 4.04 106.6 4L106.6 4 106.34 2.45Q107.67 2.67 109.13 2.58L109.13 2.58Q109.99 2.54 110.32 2.17 110.64 1.81 110.64 0.56L110.64 0.56 110.64-4.3 103.11-4.3 103.11 4.47 101.78 4.47 101.78-18.79ZM88.06-29.93L100.75-29.93 100.75-28.55 95.03-28.55 95.03-17.29 99.85-17.29 99.85-15.91 95.03-15.91 95.03-2.92Q98.3-4 100.49-4.95L100.49-4.95 100.84-3.48Q99.63-3.01 98.04-2.43 96.45-1.85 94.43-1.16L94.43-1.16Q92.45-0.52 90.86-0.09 89.27 0.34 88.06 0.6L88.06 0.6 87.68-0.82Q88.8-1.03 90.32-1.46 91.85-1.89 93.7-2.49L93.7-2.49 93.7-15.91 88.84-15.91 88.84-17.29 93.7-17.29 93.7-28.55 88.06-28.55 88.06-29.93ZM99.55-21.16L98.69-22.32Q103.5-24.98 106.83-28.04 110.17-31.09 112.4-34.74L112.4-34.74 113.95-34.74Q116.14-31.09 119.63-28.01 123.11-24.94 127.37-22.83L127.37-22.83 126.59-21.54Q122.42-23.61 118.92-26.66 115.41-29.71 113.18-33.24L113.18-33.24Q110.85-29.76 107.61-26.79 104.36-23.82 99.55-21.16L99.55-21.16ZM103.11-11.01L103.11-5.68 110.64-5.68 110.64-11.01 103.11-11.01ZM116.14 4.04L115.89 2.45Q118.03 2.71 120.19 2.58L120.19 2.58Q121.3 2.49 121.75 1.98 122.21 1.46 122.21-0.09L122.21-0.09 122.21-19.91 123.5-19.91 123.5 0.09Q123.5 1.16 123.3 1.85 123.11 2.54 122.72 2.99 122.34 3.44 121.75 3.66 121.17 3.87 120.36 3.96L120.36 3.96Q118.12 4.21 116.14 4.04L116.14 4.04ZM103.11-17.37L103.11-12.38 110.64-12.38 110.64-17.37 103.11-17.37ZM116.23-18.19L117.52-18.19 117.52-2.49 116.23-2.49 116.23-18.19ZM106.08-24.25L120.01-24.25 120.01-22.83 106.08-22.83 106.08-24.25ZM133.39-20.6L141.81-20.6 141.81-24.04 136.35-24.04 136.35-29.28 131.32-29.28 131.32-30.57 136.35-30.57 136.35-34.83 137.73-34.83 137.73-30.57 147.28-30.57 147.28-34.87 148.65-34.87 148.65-30.57 154.37-30.57 154.37-29.28 148.65-29.28 148.65-24.04 143.15-24.04 143.15-20.6 151.66-20.6 151.66-13.8 143.15-13.8 143.15-10.11 152.52-10.11 152.52-8.77 143.15-8.77 143.15-5.03 151.62-5.03 151.62-3.7 143.15-3.7 143.15 0.47Q145.94 0.26 148.2 0.09 150.46-0.09 152.22-0.3L152.22-0.3 152.26 0.99Q150.28 1.25 147.66 1.51 145.04 1.76 141.77 1.98L141.77 1.98Q138.5 2.19 135.9 2.3 133.3 2.41 131.37 2.41L131.37 2.41 131.32 0.95Q135.19 0.95 141.73 0.56L141.73 0.56 141.81 0.56 141.81-3.7 133.34-3.7 133.34-5.03 141.81-5.03 141.81-8.77 132.48-8.77 132.48-10.11 141.81-10.11 141.81-13.8 133.39-13.8 133.39-20.6ZM152.31-25.46L157.68-25.46 157.94-35 159.27-35 159.06-25.46 167.66-25.46Q167.66-22.45 167.61-19.29 167.57-16.13 167.49-13.03 167.4-9.93 167.27-6.99 167.14-4.04 166.97-1.46L166.97-1.46Q166.84 0.73 165.96 1.91 165.08 3.1 162.58 3.31L162.58 3.31Q161.16 3.4 160.11 3.44 159.06 3.48 158.2 3.48L158.2 3.48 157.9 1.59Q158.84 1.68 160.07 1.72 161.29 1.76 162.28 1.72L162.28 1.72Q163.14 1.68 163.74 1.53 164.35 1.38 164.73 0.97 165.12 0.56 165.31-0.15 165.51-0.86 165.59-2.02L165.59-2.02Q165.76-4.34 165.87-7.07 165.98-9.8 166.07-12.66 166.15-15.52 166.19-18.43 166.24-21.33 166.24-23.95L166.24-23.95 159.01-23.95 158.97-22.32Q158.58-10.66 157.25-5.55L157.25-5.55Q156.61-2.92 155.27-0.26 153.94 2.41 151.62 5.33L151.62 5.33 150.37 4.47Q152.69 1.63 154.03-0.99 155.36-3.61 155.96-6.06L155.96-6.06Q157.21-11.05 157.59-22.32L157.59-22.32 157.64-23.95 152.31-23.95 152.31-25.46ZM137.73-25.2L147.28-25.2 147.28-29.28 137.73-29.28 137.73-25.2ZM150.28-19.48L143.15-19.48 143.15-15.05 150.28-15.05 150.28-19.48ZM134.76-19.48L134.76-15.05 141.81-15.05 141.81-19.48 134.76-19.48Z" transform="translate(-1.940000057220459, 35)"></path></g> <!----> <!----> <!----> <!----> <!----> <!----> <!----></g></g> <g data-gra="path-slogan" fill-rule="" class="tp-slogan iconsvg-slogansvg" fill="#00539f" transform="translate(5,47.33000183105469)"><rect x="0" height="1" y="3.9750003814697266" width="50.6491756439209"></rect> <rect height="1" y="3.9750003814697266" width="50.6491756439209" x="105.07082557678223"></rect> <g transform="translate(53.6491756439209,0)"><g transform="scale(1)"><path d="M7.17-6.09L7.17-6.09L6.09-6.09Q6-7.73 3.94-7.83L3.94-7.83Q2.02-7.78 2.02-6.33L2.02-6.33Q2.02-5.39 3.05-5.25L3.05-5.25L5.48-4.69Q7.41-4.22 7.41-2.34L7.41-2.34Q7.36 0.05 4.03 0.14L4.03 0.14Q2.20 0.14 1.45-0.61L1.45-0.61Q0.52-1.31 0.56-2.77L0.56-2.77L1.69-2.77Q1.73-0.80 4.03-0.75L4.03-0.75Q6.28-0.80 6.33-2.20L6.33-2.20Q6.52-3.38 4.45-3.75L4.45-3.75L2.67-4.13Q0.84-4.64 0.84-6.19L0.84-6.19Q0.98-8.72 3.84-8.81L3.84-8.81Q7.08-8.81 7.17-6.09ZM8.86-8.58L10.03-8.58L10.03-1.03L14.39-1.03L14.39 0L8.86 0L8.86-8.58ZM22.31-4.27L22.31-4.27Q22.13-7.64 19.31-7.83L19.31-7.83Q16.45-7.69 16.31-4.27L16.31-4.27Q16.45-0.94 19.31-0.80L19.31-0.80Q22.13-0.98 22.31-4.27ZM23.48-4.27L23.48-4.27Q23.20 0 19.31 0.14L19.31 0.14Q15.38 0 15.09-4.27L15.09-4.27Q15.33-8.72 19.31-8.81L19.31-8.81Q23.20-8.67 23.48-4.27ZM31.27-3.61L28.64-3.61L28.64-4.59L32.39-4.59L32.39 0L31.64 0L31.36-1.08Q30.38 0.09 28.55 0.14L28.55 0.14Q26.81 0.14 25.88-0.75L25.88-0.75Q24.47-2.06 24.52-4.36L24.52-4.36Q24.84-8.63 28.59-8.81L28.59-8.81Q31.78-8.63 32.25-6L32.25-6L31.13-6Q30.66-7.78 28.55-7.83L28.55-7.83Q25.88-7.64 25.73-4.31L25.73-4.31Q25.73-0.75 28.59-0.75L28.59-0.75Q29.63-0.75 30.38-1.31L30.38-1.31Q31.31-2.06 31.27-3.61L31.27-3.61ZM39.84 0L39-2.48L35.53-2.48L34.64 0L33.47 0L36.70-8.58L38.02-8.58L41.11 0L39.84 0ZM37.27-7.31L35.91-3.52L38.58-3.52L37.31-7.31L37.27-7.31ZM43.55-8.58L47.86-1.64L47.86-8.58L48.98-8.58L48.98 0L47.67 0L43.31-6.94L43.27-6.94L43.27 0L42.14 0L42.14-8.58L43.55-8.58Z" transform="translate(-0.5602678571428572, 8.8125)"></path></g></g></g></g></g><defs v-gra="od"></defs></svg>